<svg width="42" height="44" viewBox="0 0 42 44" fill="none" xmlns="http://www.w3.org/2000/svg">
<path fill-rule="evenodd" clip-rule="evenodd" d="M24.875 10.3359L24.875 10.3167V5.5H12.9C12.0599 5.5 11.6399 5.5 11.319 5.66349C11.0368 5.8073 10.8073 6.03677 10.6635 6.31901C10.5 6.63988 10.5 7.05992 10.5 7.9V15.5H14.9284L14.9896 15.4999L21.4001 20.9628C21.4046 20.9668 21.4078 20.9694 21.4097 20.971L21.4001 20.9628C21.3939 20.9574 21.3853 20.9495 21.3736 20.9384C21.3424 20.9086 21.3054 20.8709 21.2513 20.8148L21.4615 20.9931C21.4673 20.9939 21.4819 20.9954 21.51 20.9967C21.5746 20.9997 21.6612 21 21.8216 21H31.5V12.4167H26.975H26.9557H26.9557C26.6921 12.4167 26.4648 12.4167 26.2775 12.4014C26.0798 12.3852 25.8832 12.3496 25.694 12.2532C25.4118 12.1094 25.1823 11.8799 25.0385 11.5977C24.9421 11.4085 24.9064 11.2119 24.8903 11.0142C24.875 10.8269 24.875 10.5995 24.875 10.336V10.3359V10.3359ZM31.3437 23H21.8216L21.7604 23.0001C21.5211 23.0006 21.25 23.0012 20.985 22.9356C20.7542 22.8785 20.5342 22.7843 20.3336 22.6569C20.1032 22.5104 19.9164 22.314 19.7516 22.1405L19.7094 22.0962L15.5939 17.7848C15.4832 17.6687 15.4232 17.6063 15.3764 17.5616C15.3561 17.5423 15.3448 17.5327 15.3403 17.529C15.3242 17.5192 15.3068 17.5118 15.2885 17.5069C15.2827 17.5061 15.2681 17.5046 15.24 17.5033C15.1754 17.5003 15.0888 17.5 14.9284 17.5H10.5V21.4333C10.5 22.2734 10.5 22.6935 10.6635 23.0143C10.8073 23.2966 11.0368 23.526 11.319 23.6698C11.6399 23.8333 12.0599 23.8333 12.9 23.8333H29.1C29.9401 23.8333 30.3601 23.8333 30.681 23.6698C30.9632 23.526 31.1927 23.2966 31.3365 23.0143C31.3389 23.0096 31.3413 23.0048 31.3437 23ZM21.2513 20.8148L14.9896 15.4999C15.2289 15.4994 15.5 15.4988 15.765 15.5644C15.9958 15.6215 16.2158 15.7157 16.4164 15.8431C16.6468 15.9896 16.8336 16.186 16.9984 16.3595L17.0406 16.4038L21.1561 20.7152C21.193 20.7539 21.2243 20.7867 21.2513 20.8148ZM25.875 10.3167V5.5042C25.9478 5.50802 26.0059 5.51533 26.0623 5.52928C26.1672 5.55524 26.2672 5.59803 26.3584 5.65598C26.4613 5.72135 26.5484 5.81265 26.7227 5.99524L31.0574 10.5363C31.2209 10.7076 31.3026 10.7932 31.361 10.8921C31.4128 10.9798 31.4509 11.0748 31.474 11.174C31.4901 11.2434 31.4963 11.3154 31.4986 11.4167H26.975C26.6867 11.4167 26.5006 11.4163 26.3589 11.4047C26.2231 11.3936 26.1727 11.3748 26.148 11.3622C26.0539 11.3142 25.9774 11.2377 25.9295 11.1437C25.9169 11.1189 25.8981 11.0686 25.887 10.9327C25.8754 10.7911 25.875 10.6049 25.875 10.3167Z" fill="#222222"/>
<path d="M5.25 18.9C5.25 18.0599 5.25 17.6399 5.41349 17.319C5.5573 17.0368 5.78677 16.8073 6.06901 16.6635C6.38988 16.5 6.80992 16.5 7.65 16.5H14.9284C15.2313 16.5 15.3828 16.5 15.5248 16.5351C15.6507 16.5663 15.7706 16.6176 15.8801 16.6872C16.0035 16.7656 16.1081 16.8752 16.3173 17.0943L20.4327 21.4057C20.6419 21.6248 20.7465 21.7344 20.8699 21.8128C20.9794 21.8824 21.0993 21.9337 21.2252 21.9649C21.3672 22 21.5187 22 21.8216 22H34.35C35.1901 22 35.6101 22 35.931 22.1635C36.2132 22.3073 36.4427 22.5368 36.5865 22.819C36.75 23.1399 36.75 23.5599 36.75 24.4V37.9333C36.75 38.7734 36.75 39.1935 36.5865 39.5143C36.4427 39.7966 36.2132 40.026 35.931 40.1698C35.6101 40.3333 35.1901 40.3333 34.35 40.3333H7.65C6.80992 40.3333 6.38988 40.3333 6.06901 40.1698C5.78677 40.026 5.5573 39.7966 5.41349 39.5143C5.25 39.1935 5.25 38.7734 5.25 37.9333V18.9Z" fill="#222222"/>
</svg>
