<svg width="28" height="30" viewBox="0 0 28 30" fill="none" xmlns="http://www.w3.org/2000/svg">
<path fill-rule="evenodd" clip-rule="evenodd" d="M22.4844 0C23.3304 0 24.1417 0.31607 24.7399 0.87868C25.3381 1.44129 25.6742 2.20435 25.6742 3V16.2045C23.7032 15.1336 21.3908 14.7586 19.1523 15.1468C16.9138 15.535 14.8957 16.661 13.4603 18.3225C12.025 19.9841 11.2665 22.0725 11.3209 24.2127C11.3753 26.3529 12.2391 28.4048 13.7572 30H3.34573C2.49974 30 1.68841 29.6839 1.09021 29.1213C0.49201 28.5587 0.155945 27.7956 0.155945 27V3C0.155945 2.20435 0.49201 1.44129 1.09021 0.87868C1.68841 0.31607 2.49974 0 3.34573 0H22.4844ZM20.8895 18C22.5815 18 24.2042 18.6321 25.4006 19.7574C26.597 20.8826 27.2691 22.4087 27.2691 24C27.2691 25.5913 26.597 27.1174 25.4006 28.2426C24.2042 29.3679 22.5815 30 20.8895 30C19.1976 30 17.5749 29.3679 16.3785 28.2426C15.1821 27.1174 14.51 25.5913 14.51 24C14.51 22.4087 15.1821 20.8826 16.3785 19.7574C17.5749 18.6321 19.1976 18 20.8895 18ZM20.8895 20.25C20.4989 20.25 20.1219 20.3849 19.8299 20.6291C19.538 20.8732 19.3515 21.2096 19.3058 21.5745L19.2946 21.75V24C19.2947 24.3674 19.4381 24.722 19.6977 24.9966C19.9573 25.2711 20.315 25.4465 20.7029 25.4895L20.8895 25.5H22.4844C22.8909 25.4996 23.2819 25.3532 23.5775 25.0907C23.8731 24.8283 24.051 24.4696 24.0748 24.0879C24.0986 23.7062 23.9666 23.3304 23.7057 23.0373C23.4448 22.7441 23.0747 22.5557 22.671 22.5105L22.4844 22.5V21.75C22.4844 21.3522 22.3164 20.9706 22.0173 20.6893C21.7182 20.408 21.3125 20.25 20.8895 20.25ZM8.1304 13.5H6.53551C6.11252 13.5 5.70685 13.658 5.40775 13.9393C5.10865 14.2206 4.94062 14.6022 4.94062 15C4.94062 15.3978 5.10865 15.7794 5.40775 16.0607C5.70685 16.342 6.11252 16.5 6.53551 16.5H8.1304C8.55339 16.5 8.95906 16.342 9.25816 16.0607C9.55726 15.7794 9.72529 15.3978 9.72529 15C9.72529 14.6022 9.55726 14.2206 9.25816 13.9393C8.95906 13.658 8.55339 13.5 8.1304 13.5ZM16.1049 7.5H6.53551C6.129 7.50042 5.73801 7.64682 5.44242 7.90927C5.14683 8.17173 4.96895 8.53043 4.94513 8.91209C4.92131 9.29375 5.05334 9.66957 5.31425 9.96275C5.57515 10.2559 5.94525 10.4443 6.34891 10.4895L6.53551 10.5H16.1049C16.5114 10.4996 16.9024 10.3532 17.1979 10.0907C17.4935 9.82827 17.6714 9.46957 17.6952 9.08791C17.7191 8.70625 17.587 8.33043 17.3261 8.03725C17.0652 7.74407 16.6951 7.55566 16.2915 7.5105L16.1049 7.5Z" fill="white"/>
</svg>
