<svg width="73" height="82" viewBox="0 0 73 82" fill="none" xmlns="http://www.w3.org/2000/svg">
<rect x="12.1666" y="10.25" width="48.6667" height="61.5" rx="2" fill="#7E869E" fill-opacity="0.25"/>
<path d="M25.8541 22.2083L47.1458 22.2083" stroke="#222222" stroke-linecap="round"/>
<path d="M25.8541 32.4583L38.0208 32.4583" stroke="#222222" stroke-linecap="round"/>
<path d="M25.8541 42.7083L44.1041 42.7083" stroke="#222222" stroke-linecap="round"/>
<path d="M12.1666 62.0833C12.1666 60.1977 12.1666 59.2549 12.7524 58.6691C13.3382 58.0833 14.281 58.0833 16.1666 58.0833H56.8333C58.7189 58.0833 59.6617 58.0833 60.2475 57.4975C60.8333 56.9117 60.8333 55.9689 60.8333 54.0833V47.8333V67.75C60.8333 69.6356 60.8333 70.5784 60.2475 71.1642C59.6617 71.75 58.7189 71.75 56.8333 71.75H16.1666C14.281 71.75 13.3382 71.75 12.7524 71.1642C12.1666 70.5784 12.1666 69.6356 12.1666 67.75V62.0833Z" fill="#222222"/>
</svg>
