<svg width="40" height="40" viewBox="0 0 40 40" fill="none" xmlns="http://www.w3.org/2000/svg">
<path fill-rule="evenodd" clip-rule="evenodd" d="M35 30.6667V19.4166C34.9999 21.2468 34.9913 22.1704 34.4142 22.7475C33.8284 23.3333 32.8856 23.3333 31 23.3333H28.1082C27.4125 23.3333 27.0646 23.3333 26.8027 23.5221C26.5408 23.7108 26.4308 24.0409 26.2108 24.7009L25.4558 26.9658C25.2358 27.6258 25.1258 27.9558 24.864 28.1446C24.6021 28.3333 24.2542 28.3333 23.5585 28.3333H16.4415C15.7458 28.3333 15.3979 28.3333 15.136 28.1446C14.8742 27.9558 14.7642 27.6258 14.5442 26.9658L13.7892 24.7009L13.7892 24.7009C13.5692 24.0408 13.4592 23.7108 13.1973 23.5221C12.9354 23.3333 12.5875 23.3333 11.8918 23.3333H9C7.11438 23.3333 6.17157 23.3333 5.58579 22.7475C5 22.1618 5 21.2189 5 19.3333V30.6667C5 33.4951 5 34.9093 5.87868 35.788C6.75736 36.6667 8.17157 36.6667 11 36.6667H29C31.8284 36.6667 33.2426 36.6667 34.1213 35.788C35 34.9093 35 33.4951 35 30.6667Z" fill="#222222"/>
<path d="M26.6667 10H31C32.8856 10 33.8284 10 34.4142 10.5858C35 11.1716 35 12.1144 35 14V32.6667C35 34.5523 35 35.4951 34.4142 36.0809C33.8284 36.6667 32.8856 36.6667 31 36.6667H9C7.11438 36.6667 6.17157 36.6667 5.58579 36.0809C5 35.4951 5 34.5523 5 32.6667V14C5 12.1144 5 11.1716 5.58579 10.5858C6.17157 10 7.11438 10 9 10H13.3333" stroke="#222222" stroke-width="2"/>
<path d="M13.3333 16.6667L20 21.6667M20 21.6667L26.6667 16.6667M20 21.6667L20 5.00001" stroke="#222222" stroke-width="2"/>
</svg>
