<svg width="40" height="40" viewBox="0 0 40 40" fill="none" xmlns="http://www.w3.org/2000/svg">
<path fill-rule="evenodd" clip-rule="evenodd" d="M8.45737 15.6257C8 16.6203 8 17.7519 8 20.015V27.0828C8 30.2258 8 31.7972 8.97617 32.7736C9.93492 33.7326 11.4676 33.7497 14.4989 33.75V25.4161C14.4989 23.9435 15.6925 22.7493 17.1654 22.7493H22.1646C23.6375 22.7493 24.8311 23.9435 24.8311 25.4161V33.75C27.8624 33.7497 29.3951 33.7326 30.3538 32.7736C31.33 31.7972 31.33 30.2258 31.33 27.0828V20.015C31.33 17.7519 31.33 16.6203 30.8726 15.6257C30.4153 14.631 29.5563 13.8946 27.8384 12.4218L26.172 10.9931C23.0669 8.33104 21.5144 7 19.665 7C17.8156 7 16.2631 8.33104 13.158 10.9931L11.4916 12.4218C9.77369 13.8946 8.91474 14.631 8.45737 15.6257ZM22.8311 33.75V25.4161C22.8311 25.0477 22.5325 24.7493 22.1646 24.7493H17.1654C16.7975 24.7493 16.4989 25.0477 16.4989 25.4161V33.75H22.8311Z" fill="#FFB057"/>
</svg>
