<svg width="40" height="40" viewBox="0 0 40 40" fill="none" xmlns="http://www.w3.org/2000/svg">
<path d="M8 20.014C8 17.751 8 16.6196 8.45744 15.625C8.91487 14.6304 9.77394 13.8941 11.4921 12.4214L13.1588 10.9928C16.2643 8.33094 17.817 7 19.6667 7C21.5163 7 23.0691 8.33094 26.1746 10.9928L27.8412 12.4214C29.5594 13.8941 30.4185 14.6304 30.8759 15.625C31.3333 16.6196 31.3333 17.751 31.3333 20.014V27.0813C31.3333 30.224 31.3333 31.7953 30.357 32.7716C29.3807 33.7479 27.8094 33.7479 24.6667 33.7479H14.6667C11.524 33.7479 9.95262 33.7479 8.97631 32.7716C8 31.7953 8 30.224 8 27.0813V20.014Z" stroke="#FFB057" stroke-width="2"/>
<path d="M23.8333 33.7479V24.7479C23.8333 24.1956 23.3856 23.7479 22.8333 23.7479H16.5C15.9477 23.7479 15.5 24.1956 15.5 24.7479V33.7479" stroke="#FFB057" stroke-width="2" stroke-linecap="round" stroke-linejoin="round"/>
</svg>
