<svg width="40" height="40" viewBox="0 0 40 40" fill="none" xmlns="http://www.w3.org/2000/svg">
<path d="M3 9C3 7.11438 3 6.17157 3.58579 5.58579C4.17157 5 5.11438 5 7 5H32.3333C34.219 5 35.1618 5 35.7475 5.58579C36.3333 6.17157 36.3333 7.11438 36.3333 9V13C36.3333 13.9428 36.3333 14.4142 36.0404 14.7071C35.7475 15 35.2761 15 34.3333 15H5C4.05719 15 3.58579 15 3.29289 14.7071C3 14.4142 3 13.9428 3 13V9Z" fill="#FFB057"/>
<path fill-rule="evenodd" clip-rule="evenodd" d="M7.21199 34.1213C6.33331 33.2427 6.33331 31.8284 6.33331 29V18.3333H33V29C33 31.8284 33 33.2427 32.1213 34.1213C31.2426 35 29.8284 35 27 35H12.3333C9.50489 35 8.09067 35 7.21199 34.1213ZM16.3333 25.6667C15.781 25.6667 15.3333 26.1144 15.3333 26.6667C15.3333 27.219 15.781 27.6667 16.3333 27.6667H23C23.5523 27.6667 24 27.219 24 26.6667C24 26.1144 23.5523 25.6667 23 25.6667H16.3333Z" fill="#FFB057"/>
</svg>
