<svg width="40" height="40" viewBox="0 0 40 40" fill="none" xmlns="http://www.w3.org/2000/svg">
<path d="M8.33333 13.6667V29.6667C8.33333 31.5523 8.33333 32.4951 8.91912 33.0809C9.50491 33.6667 10.4477 33.6667 12.3333 33.6667H27.6667C29.5523 33.6667 30.4951 33.6667 31.0809 33.0809C31.6667 32.4951 31.6667 31.5523 31.6667 29.6667V13.6667M8.33333 13.6667H31.6667M8.33333 13.6667H5.4C5.21144 13.6667 5.11716 13.6667 5.05858 13.6081C5 13.5495 5 13.4552 5 13.2667V11C5 9.11438 5 8.17157 5.58579 7.58579C6.17157 7 7.11438 7 9 7H31C32.8856 7 33.8284 7 34.4142 7.58579C35 8.17157 35 9.11438 35 11V13.2667C35 13.4552 35 13.5495 34.9414 13.6081C34.8828 13.6667 34.7886 13.6667 34.6 13.6667H31.6667" stroke="#FFB057" stroke-width="2"/>
<path d="M16.6667 27H23.3333" stroke="#FFB057" stroke-width="2" stroke-linecap="round"/>
</svg>
