<svg width="23" height="23" viewBox="0 0 23 23" fill="none" xmlns="http://www.w3.org/2000/svg">
<path fill-rule="evenodd" clip-rule="evenodd" d="M13.7582 2.28869C13.0545 2.02098 12.2928 1.875 11.5 1.875C8.26254 1.875 5.54281 4.30927 5.18529 7.52693L4.94398 9.69872C4.83607 10.6699 4.51996 11.6064 4.01721 12.4443L3.46326 13.3676L3.44174 13.4034C3.22591 13.7631 3.03027 14.0891 2.89654 14.3658C2.7612 14.6458 2.61179 15.0239 2.64815 15.4584C2.6969 16.0411 2.99821 16.5733 3.47279 16.9149C3.82668 17.1696 4.22779 17.2361 4.53753 17.2641C4.84356 17.2917 5.22378 17.2917 5.64322 17.2917L5.68505 17.2917H17.3149L17.3568 17.2917C17.7762 17.2917 18.1564 17.2917 18.4625 17.2641C18.7722 17.2361 19.1733 17.1696 19.5272 16.9149C20.0018 16.5733 20.3031 16.0411 20.3518 15.4584C20.3882 15.0239 20.2388 14.6458 20.1034 14.3658C19.9697 14.0891 19.7741 13.7632 19.5583 13.4036L19.5583 13.4034L19.5367 13.3676L18.9828 12.4443C18.6328 11.861 18.3733 11.23 18.2115 10.5727C17.9005 10.6343 17.579 10.6667 17.25 10.6667C16.8757 10.6667 16.5111 10.6248 16.1607 10.5456C16.3514 11.5782 16.7258 12.57 17.2678 13.4733L17.8217 14.3966C18.0661 14.8038 18.2133 15.0511 18.3028 15.2361C18.3084 15.2477 18.3135 15.2586 18.3181 15.2686C18.3071 15.2698 18.2952 15.271 18.2824 15.2722C18.0777 15.2907 17.7898 15.2917 17.3149 15.2917H5.68505C5.21015 15.2917 4.92233 15.2907 4.71763 15.2722C4.70479 15.271 4.69289 15.2698 4.68188 15.2686C4.68652 15.2586 4.69162 15.2477 4.69723 15.2361C4.78667 15.0511 4.93391 14.8038 5.17825 14.3966L5.7322 13.4733C6.38293 12.3888 6.79208 11.1766 6.93175 9.91958L7.17306 7.74779C7.41804 5.543 9.28164 3.875 11.5 3.875C11.8948 3.875 12.2784 3.92784 12.6436 4.02714C12.8898 3.36927 13.2729 2.77823 13.7582 2.28869ZM16.3113 4.07857C15.7276 4.40709 15.3333 5.03251 15.3333 5.75C15.3333 5.96177 15.3677 6.16552 15.4311 6.35598C15.4776 6.45361 15.5206 6.55331 15.56 6.65493C15.8831 7.25714 16.5187 7.66667 17.25 7.66667C17.4487 7.66667 17.6404 7.63642 17.8206 7.58029L17.8147 7.52693C17.6681 6.20793 17.1246 5.02057 16.3113 4.07857Z" fill="black"/>
<path d="M8.72296 16.9287C8.88677 17.8456 9.24771 18.6559 9.74981 19.2338C10.2519 19.8118 10.8671 20.125 11.5 20.125C12.1329 20.125 12.7481 19.8118 13.2502 19.2338C13.7523 18.6559 14.1132 17.8456 14.277 16.9287" stroke="black" stroke-width="2" stroke-linecap="round"/>
<circle cx="17.25" cy="5.75001" r="2.41667" fill="#FFB057" stroke="#FFB057"/>
</svg>
