<svg width="76" height="76" viewBox="0 0 76 76" fill="none" xmlns="http://www.w3.org/2000/svg">
<path d="M37.9375 72.875C57.2329 72.875 72.875 57.2329 72.875 37.9375C72.875 18.6421 57.2329 3 37.9375 3C18.6421 3 3 18.6421 3 37.9375C3 57.2329 18.6421 72.875 37.9375 72.875Z" stroke="#E87817" stroke-width="5" stroke-linecap="round" stroke-linejoin="round"/>
<path d="M32.6091 25.6168C32.1368 24.0427 31.812 22.4281 31.639 20.7938C31.4667 19.1639 30.0448 17.9517 28.4052 17.9517H20.8035C18.8486 17.9517 17.3422 19.64 17.5145 21.5868C19.2483 41.2038 34.8743 56.8298 54.4913 58.5637C56.4381 58.7359 58.1265 57.2344 58.1265 55.2812V48.5017C58.1265 46.0268 56.9142 44.6098 55.2843 44.4375C53.6501 44.2645 52.0354 43.9397 50.4613 43.4674C49.5276 43.1908 48.5363 43.172 47.5928 43.4132C46.6492 43.6544 45.7886 44.1465 45.1021 44.8373L41.8488 48.0905C35.9817 44.9117 31.1657 40.0952 27.9876 34.2277L31.2392 30.9744C31.93 30.2879 32.4221 29.4273 32.6633 28.4837C32.9045 27.5402 32.8857 26.5506 32.6091 25.6168Z" stroke="#E87817" stroke-width="5" stroke-linecap="round" stroke-linejoin="round"/>
</svg>
