<svg width="40" height="40" viewBox="0 0 40 40" fill="none" xmlns="http://www.w3.org/2000/svg">
<path fill-rule="evenodd" clip-rule="evenodd" d="M17 4C15.3431 4 14 5.34315 14 7H12.8333C10.4926 7 9.32218 7 8.48143 7.56177C8.11747 7.80496 7.80496 8.11747 7.56177 8.48143C7 9.32218 7 10.4926 7 12.8333V28.6667C7 31.8094 7 33.3807 7.97631 34.357C8.95262 35.3333 10.524 35.3333 13.6667 35.3333H27C30.1427 35.3333 31.714 35.3333 32.6904 34.357C33.6667 33.3807 33.6667 31.8094 33.6667 28.6667V12.8333C33.6667 10.4926 33.6667 9.32218 33.1049 8.48143C32.8617 8.11747 32.5492 7.80496 32.1852 7.56177C31.3445 7 30.1741 7 27.8333 7H26.6667C26.6667 5.34315 25.3235 4 23.6667 4H17ZM17.6667 7C17.6667 6.44772 18.1144 6 18.6667 6H22C22.5523 6 23 6.44772 23 7C23 7.55228 22.5523 8 22 8H18.6667C18.1144 8 17.6667 7.55228 17.6667 7ZM15.3333 17.6667C14.781 17.6667 14.3333 18.1144 14.3333 18.6667C14.3333 19.219 14.781 19.6667 15.3333 19.6667H25.3333C25.8856 19.6667 26.3333 19.219 26.3333 18.6667C26.3333 18.1144 25.8856 17.6667 25.3333 17.6667H15.3333ZM15.3333 24.3333C14.781 24.3333 14.3333 24.781 14.3333 25.3333C14.3333 25.8856 14.781 26.3333 15.3333 26.3333L22 26.3333C22.5523 26.3333 23 25.8856 23 25.3333C23 24.781 22.5523 24.3333 22 24.3333L15.3333 24.3333Z" fill="#FFB057"/>
</svg>
