<svg width="40" height="40" viewBox="0 0 40 40" fill="none" xmlns="http://www.w3.org/2000/svg">
<path d="M25.5 7.33334C27.8408 7.33334 29.0112 7.33334 29.8519 7.89511C30.2159 8.13831 30.5284 8.45081 30.7716 8.81478C31.3333 9.65552 31.3333 10.8259 31.3333 13.1667V29C31.3333 32.1427 31.3333 33.7141 30.357 34.6904C29.3807 35.6667 27.8094 35.6667 24.6667 35.6667H14.6667C11.524 35.6667 9.95262 35.6667 8.97631 34.6904C8 33.7141 8 32.1427 8 29V13.1667C8 10.8259 8 9.65552 8.56177 8.81478C8.80496 8.45081 9.11747 8.13831 9.48143 7.89511C10.3222 7.33334 11.4926 7.33334 13.8333 7.33334" stroke="#FFB057" stroke-width="2"/>
<path d="M14.6667 7.33333C14.6667 5.49238 16.159 4 18 4H21.3333C23.1743 4 24.6667 5.49238 24.6667 7.33333C24.6667 9.17428 23.1743 10.6667 21.3333 10.6667H18C16.159 10.6667 14.6667 9.17428 14.6667 7.33333Z" stroke="#FFB057" stroke-width="2"/>
<path d="M14.6667 19L24.6667 19" stroke="#FFB057" stroke-width="2" stroke-linecap="round"/>
<path d="M14.6667 25.6667L21.3333 25.6667" stroke="#FFB057" stroke-width="2" stroke-linecap="round"/>
</svg>
